{"title":"The City Of Your Final Destination (2009) DVDRip XviD-SKITTLES","uid":5779729,"size":739295315,"categoryP":"video","categoryS":"movies","magnet":"?xt=urn:btih:539e2eb4e834eae965cda40452c6f69bedbf4fe5&amp;dn=The+City+Of+Your+Final+Destination+%282009%29+DVDRip+XviD-SKITTLES&amp;tr=udp%3A%2F%2Ftracker.openbittorrent.com%3A80&amp;tr=udp%3A%2F%2Fopen.demonii.com%3A1337&amp;tr=udp%3A%2F%2Ftracker.coppersurfer.tk%3A6969&amp;tr=udp%3A%2F%2Fexodus.desync.com%3A6969","seeders":0,"leechers":0,"uploader":"TvTeam","files":4,"time":1282376368,"description":". \n  &lt;a href=&quot;\nhttp://www.torrentday.com/&quot; rel=&quot;nofollow&quot; target=&quot;_NEW&quot;&gt;\nhttp://www.torrentday.com/&lt;/a&gt;        :     The Hottest Private Tracker On The Net!!!\n\n\n               www . TorrentDay . Com \n(((((((((((((= Enjoy No RAR releases =))))))))))))))))))))\n\n\n...................................NFO:....................................\n\n.[img]http://leetleech.org/images/33281382742739452632.jpg[/img]\n\n[b]The City of Your Final Destination (2009) DVDRip XviD-SKITTLES[/b]\n\n[img]http://leetleech.org/images/39185456263711143641.png[/img]\n\nVideo\nID                               : 0\nFormat                           : MPEG-4 Visual\nFormat profile                   : Advanced Simple@L5\nFormat settings, BVOP            : Yes\nFormat settings, QPel            : No\nFormat settings, GMC             : No warppoints\nFormat settings, Matrix          : Default (H.263)\nMuxing mode                      : Packed bitstream\nCodec ID                         : XVID\nCodec ID/Hint                    : XviD\nDuration                         : 1h 57mn\nBit rate                         : 718 Kbps\nWidth                            : 592 pixels\nHeight                           : 320 pixels\nDisplay aspect ratio             : 1.850\nFrame rate                       : 23.976 fps\nColor space                      : YUV\nChroma subsampling               : 4:2:0\nBit depth                        : 8 bits\nScan type                        : Progressive\nBits/(Pixel*Frame)               : 0.158\nStream size                      : 603 MiB (86%)\nWriting library                  : XviD 1.2.1 (UTC 2008-12-04)\n\nAudio\nID                               : 1\nFormat                           : MPEG Audio\nFormat version                   : Version 1\nFormat profile                   : Layer 3\nMode                             : Joint stereo\nMode extension                   : MS Stereo\nCodec ID                         : 55\nCodec ID/Hint                    : MP3\nDuration                         : 1h 57mn\nBit rate mode                    : Constant\nBit rate                         : 112 Kbps\nChannel(s)                       : 2 channels\nSampling rate                    : 44.1 KHz\nStream size                      : 94.1 MiB (13%)\nAlignment                        : Split accross interleaves\nInterleave, duration             : 42 ms (1.00 video frame)\nInterleave, preload duration     : 500 ms &lt;a href=&quot;\nhttp://www.imdb.com/title/tt0896923/&quot; rel=&quot;nofollow&quot; target=&quot;_NEW&quot;&gt;\nhttp://www.imdb.com/title/tt0896923/&lt;/a&gt;\n\n[img]http://leetleech.org/images/46941880339015444838.png[/img]\n\nAnthony Hopkins\t... \tAdam\nOmar Metwally\t... \tOmar Razaghi\nLaura Linney\t... \tCaroline\nCharlotte Gainsbourg... Arden Langdon\nHiroyuki Sanada\t... \tPete\nNorma Aleandro\t... \tMrs. Van Euwen\nAlexandra Maria Lara... Deirdre\n\n[img]http://leetleech.org/images/70187465700988366433.png[/img]\n\nGenre:\nDrama \n\nPlot: \n28-year-old Kansas University doctoral student Omar Razaghi\nwins a grant to write a biography of Latin American writer \nJules Gund. Omar must get through to three people who were c\nlose to Gund--his brother, widow, and younger mistress--so he \ncan get authorization to write the biography.  \n\n[img]http://leetleech.org/images/64476088802225496360.png[/img]\n\n[img]http://leetleech.org/images/16396981489152526633.png[/img]\n[img]http://leetleech.org/images/91222373312763059194.png[/img]\n[img]http://leetleech.org/images/25956923102384916600.png[/img]\n[img]http://leetleech.org/images/25956923102384916600.png[/img]\n[img]http://leetleech.org/images/21776329302142520200.png[/img]\n[img]http://leetleech.org/images/76784549554364050382.png[/img]","torrent":{"xt":"urn:btih:539e2eb4e834eae965cda40452c6f69bedbf4fe5","amp;dn":"The+City+Of+Your+Final+Destination+%282009%29+DVDRip+XviD-SKITTLES","amp;tr":["udp%3A%2F%2Ftracker.openbittorrent.com%3A80","udp%3A%2F%2Fopen.demonii.com%3A1337","udp%3A%2F%2Ftracker.coppersurfer.tk%3A6969","udp%3A%2F%2Fexodus.desync.com%3A6969"],"infoHash":"539e2eb4e834eae965cda40452c6f69bedbf4fe5","infoHashBuffer":{"type":"Buffer","data":[83,158,46,180,232,52,234,233,101,205,164,4,82,198,246,155,237,191,79,229]},"announce":[],"urlList":[]}}